<svg width="271" height="291" viewBox="0 0 271 291" fill="none" xmlns="http://www.w3.org/2000/svg">
<g clip-path="url(#clip0_2524_387)">
<mask id="mask0_2524_387" style="mask-type:luminance" maskUnits="userSpaceOnUse" x="0" y="0" width="271" height="291">
<path d="M271 0H0V291H271V0Z" fill="white"/>
</mask>
<g mask="url(#mask0_2524_387)">
<mask id="mask1_2524_387" style="mask-type:luminance" maskUnits="userSpaceOnUse" x="0" y="0" width="271" height="291">
<path d="M271 0H0V291H271V0Z" fill="white"/>
</mask>
<g mask="url(#mask1_2524_387)">
<path fill-rule="evenodd" clip-rule="evenodd" d="M63.2015 1.5641C46.5523 4.59564 21.9601 18.3678 13.6003 29.3435C9.24467 35.0611 7.64461 42.357 11.0304 41.0565C21.9136 36.8745 61.088 36.5716 73.6601 40.5715C82.126 43.2657 96.736 52.0721 99.9984 56.448C101.783 58.8419 102.847 63.5605 103.703 72.8757C104.362 80.0639 105.71 89.0417 106.697 92.8278C108.436 99.4953 108.393 99.8061 105.301 102.714C103.546 104.365 100.4 109.338 98.3095 113.764C93.6221 123.69 88.8711 128.622 80.2673 132.491C76.6187 134.133 72.3679 136.885 70.8209 138.608C67.2693 142.562 0 240.605 0 241.826C0 242.323 11.0371 253.769 24.5273 267.262C45.8027 288.543 49.2974 291.534 50.8815 289.833C52.7933 287.779 117.165 180.515 120.486 173.85C121.645 171.523 122.321 166.585 122.207 161.278C121.953 149.583 123.454 145.558 134.321 128.788L143.575 114.507H149.167C152.244 114.507 159.746 113.012 165.841 111.186C171.936 109.359 178.581 107.864 180.607 107.864C189.428 107.864 195.412 114.26 196.766 125.134C197.366 129.951 198.494 131.955 202.572 135.447C210.648 142.362 219.692 147.814 226.481 149.86C232.429 151.652 233.101 151.588 238.777 148.677C243.691 146.157 246.55 142.956 254.523 131.049C266.67 112.905 270.624 104.737 270.64 97.7484C270.657 90.4153 267.835 87.134 252.47 76.6298L239.754 67.9338L232.776 69.965C218.226 74.2015 211.944 71.696 202.783 58.0089C197.353 49.896 195.523 48.4493 171.123 32.9701C144.416 16.027 131.13 9.85501 108.849 4.04036C97.5068 1.08055 73.1228 -0.242594 63.2015 1.5641Z" fill="#FE8500"/>
</g>
</g>
</g>
<defs>
<clipPath id="clip0_2524_387">
<rect width="271" height="291" fill="white"/>
</clipPath>
</defs>
</svg>
