<svg width="18" height="18" viewBox="0 0 18 18" fill="none" xmlns="http://www.w3.org/2000/svg">
<g id="Frame" clip-path="url(#clip0_2002_1891)">
<path id="Vector" d="M6.60975 8.709C6.9525 8.424 7.29825 8.424 7.64925 8.71725L7.73025 8.79075L11.4697 12.5302L11.5402 12.5925C11.6846 12.7044 11.8647 12.7597 12.0469 12.7482C12.2292 12.7367 12.4009 12.6592 12.5301 12.5301C12.6592 12.4009 12.7367 12.2292 12.7482 12.0469C12.7597 11.8647 12.7044 11.6846 12.5925 11.5402L12.5302 11.4697L11.5612 10.5L11.7802 10.2802L11.8597 10.209C12.2025 9.924 12.5482 9.924 12.8992 10.2172L12.9802 10.2907L16.4857 13.797C16.4147 14.5112 16.09 15.1763 15.5706 15.6715C15.0511 16.1668 14.3713 16.4594 13.6545 16.4962L13.5 16.5H4.5C3.75593 16.5 3.03843 16.2234 2.48682 15.724C1.93521 15.2247 1.58885 14.5381 1.515 13.7977L6.53025 8.78025L6.60975 8.709ZM13.5 1.5C14.2697 1.5 15.0099 1.79583 15.5676 2.32629C16.1253 2.85676 16.4578 3.58128 16.4962 4.35L16.5 4.5V11.6887L14.0302 9.21975L13.9177 9.117C12.9757 8.29575 11.7802 8.29425 10.8457 9.10425L10.7302 9.20925L10.5 9.43875L8.78025 7.71975L8.66775 7.617C7.72575 6.79575 6.53025 6.79425 5.59575 7.60425L5.48025 7.70925L1.5 11.6887V4.5C1.5 3.73032 1.79583 2.99008 2.32629 2.43239C2.85676 1.8747 3.58128 1.54223 4.35 1.50375L4.5 1.5H13.5ZM11.2575 5.25L11.1622 5.25525C10.98 5.27693 10.812 5.36472 10.6901 5.50197C10.5682 5.63923 10.5008 5.81643 10.5008 6C10.5008 6.18357 10.5682 6.36077 10.6901 6.49803C10.812 6.63528 10.98 6.72307 11.1622 6.74475L11.25 6.75L11.3452 6.74475C11.5275 6.72307 11.6955 6.63528 11.8174 6.49803C11.9393 6.36077 12.0067 6.18357 12.0067 6C12.0067 5.81643 11.9393 5.63923 11.8174 5.50197C11.6955 5.36472 11.5275 5.27693 11.3452 5.25525L11.2575 5.25Z" fill="#E30A0A"/>
</g>
<defs>
<clipPath id="clip0_2002_1891">
<rect width="18" height="18" fill="white"/>
</clipPath>
</defs>
</svg>
