<svg width="167" height="60" viewBox="0 0 167 60" fill="none" xmlns="http://www.w3.org/2000/svg">
<path d="M1.728 24V7.128H4.992V24H1.728ZM12.312 24V7.128H15.576V24H12.312ZM3.792 16.728V13.848H13.224V16.728H3.792ZM24.1369 24.24C22.9689 24.24 21.9129 23.976 20.9689 23.448C20.0409 22.904 19.2969 22.176 18.7369 21.264C18.1929 20.336 17.9209 19.304 17.9209 18.168C17.9209 17.032 18.1929 16.016 18.7369 15.12C19.2809 14.208 20.0249 13.488 20.9689 12.96C21.9129 12.416 22.9609 12.144 24.1129 12.144C25.2969 12.144 26.3529 12.416 27.2809 12.96C28.2249 13.488 28.9689 14.208 29.5129 15.12C30.0569 16.016 30.3289 17.032 30.3289 18.168C30.3289 19.304 30.0569 20.336 29.5129 21.264C28.9689 22.176 28.2249 22.904 27.2809 23.448C26.3529 23.976 25.3049 24.24 24.1369 24.24ZM24.1129 21.312C24.7049 21.312 25.2249 21.184 25.6729 20.928C26.1369 20.656 26.4889 20.288 26.7289 19.824C26.9849 19.344 27.1129 18.8 27.1129 18.192C27.1129 17.584 26.9849 17.048 26.7289 16.584C26.4729 16.12 26.1209 15.76 25.6729 15.504C25.2249 15.232 24.7049 15.096 24.1129 15.096C23.5369 15.096 23.0249 15.232 22.5769 15.504C22.1289 15.76 21.7769 16.12 21.5209 16.584C21.2649 17.048 21.1369 17.584 21.1369 18.192C21.1369 18.8 21.2649 19.344 21.5209 19.824C21.7769 20.288 22.1289 20.656 22.5769 20.928C23.0249 21.184 23.5369 21.312 24.1129 21.312ZM32.3529 24V12.408H35.4969V24H32.3529ZM39.9129 24V17.16C39.9129 16.488 39.6969 15.968 39.2649 15.6C38.8489 15.216 38.3289 15.024 37.7049 15.024C37.2889 15.024 36.9129 15.112 36.5769 15.288C36.2409 15.448 35.9769 15.688 35.7849 16.008C35.5929 16.328 35.4969 16.712 35.4969 17.16L34.2729 16.56C34.2729 15.664 34.4649 14.888 34.8489 14.232C35.2489 13.576 35.7849 13.072 36.4569 12.72C37.1289 12.352 37.8889 12.168 38.7369 12.168C39.5369 12.168 40.2649 12.352 40.9209 12.72C41.5769 13.072 42.0969 13.576 42.4809 14.232C42.8649 14.872 43.0569 15.648 43.0569 16.56V24H39.9129ZM47.4729 24V17.16C47.4729 16.488 47.2569 15.968 46.8249 15.6C46.4089 15.216 45.8889 15.024 45.2649 15.024C44.8649 15.024 44.4889 15.112 44.1369 15.288C43.8009 15.448 43.5369 15.688 43.3449 16.008C43.1529 16.328 43.0569 16.712 43.0569 17.16L41.2569 16.728C41.3209 15.8 41.5689 15 42.0009 14.328C42.4329 13.64 43.0009 13.112 43.7049 12.744C44.4089 12.36 45.1929 12.168 46.0569 12.168C46.9209 12.168 47.6969 12.352 48.3849 12.72C49.0729 13.072 49.6169 13.584 50.0169 14.256C50.4169 14.928 50.6169 15.728 50.6169 16.656V24H47.4729ZM58.7094 24.24C57.4934 24.24 56.4134 23.984 55.4694 23.472C54.5254 22.944 53.7734 22.224 53.2134 21.312C52.6694 20.4 52.3974 19.36 52.3974 18.192C52.3974 17.04 52.6614 16.016 53.1894 15.12C53.7334 14.208 54.4694 13.488 55.3974 12.96C56.3254 12.416 57.3574 12.144 58.4934 12.144C59.6134 12.144 60.5974 12.4 61.4454 12.912C62.3094 13.408 62.9814 14.096 63.4614 14.976C63.9574 15.84 64.2054 16.824 64.2054 17.928C64.2054 18.136 64.1894 18.352 64.1574 18.576C64.1414 18.784 64.1014 19.024 64.0374 19.296L54.2934 19.32V16.968L62.5734 16.944L61.3014 17.928C61.2694 17.24 61.1414 16.664 60.9174 16.2C60.7094 15.736 60.3974 15.384 59.9814 15.144C59.5814 14.888 59.0854 14.76 58.4934 14.76C57.8694 14.76 57.3254 14.904 56.8614 15.192C56.3974 15.464 56.0374 15.856 55.7814 16.368C55.5414 16.864 55.4214 17.456 55.4214 18.144C55.4214 18.848 55.5494 19.464 55.8054 19.992C56.0774 20.504 56.4614 20.904 56.9574 21.192C57.4534 21.464 58.0294 21.6 58.6854 21.6C59.2774 21.6 59.8134 21.504 60.2934 21.312C60.7734 21.104 61.1894 20.8 61.5414 20.4L63.3894 22.248C62.8294 22.904 62.1414 23.4 61.3254 23.736C60.5254 24.072 59.6534 24.24 58.7094 24.24ZM4.128 46.944V44.4H8.04C8.84 44.4 9.456 44.2 9.888 43.8C10.336 43.384 10.56 42.816 10.56 42.096C10.56 41.44 10.336 40.896 9.888 40.464C9.456 40.016 8.84 39.792 8.04 39.792H4.128V37.128H8.328C9.416 37.128 10.368 37.344 11.184 37.776C12.016 38.192 12.656 38.768 13.104 39.504C13.568 40.24 13.8 41.088 13.8 42.048C13.8 43.04 13.568 43.904 13.104 44.64C12.656 45.36 12.016 45.928 11.184 46.344C10.352 46.744 9.384 46.944 8.28 46.944H4.128ZM1.728 54V37.128H4.992V54H1.728ZM10.944 54L5.376 46.704L8.376 45.768L14.904 54H10.944ZM20.9353 54.24C19.8793 54.24 18.9273 53.976 18.0793 53.448C17.2313 52.92 16.5673 52.2 16.0873 51.288C15.6073 50.376 15.3673 49.352 15.3673 48.216C15.3673 47.064 15.6073 46.032 16.0873 45.12C16.5673 44.208 17.2313 43.488 18.0793 42.96C18.9273 42.432 19.8793 42.168 20.9353 42.168C21.7673 42.168 22.5113 42.336 23.1673 42.672C23.8233 43.008 24.3433 43.48 24.7273 44.088C25.1273 44.68 25.3433 45.352 25.3753 46.104V50.28C25.3433 51.048 25.1273 51.728 24.7273 52.32C24.3433 52.912 23.8233 53.384 23.1673 53.736C22.5113 54.072 21.7673 54.24 20.9353 54.24ZM21.5113 51.336C22.3913 51.336 23.1033 51.048 23.6473 50.472C24.1913 49.88 24.4633 49.12 24.4633 48.192C24.4633 47.584 24.3353 47.048 24.0793 46.584C23.8393 46.104 23.4953 45.736 23.0473 45.48C22.6153 45.208 22.1033 45.072 21.5113 45.072C20.9353 45.072 20.4233 45.208 19.9753 45.48C19.5433 45.736 19.1993 46.104 18.9433 46.584C18.7033 47.048 18.5833 47.584 18.5833 48.192C18.5833 48.816 18.7033 49.368 18.9433 49.848C19.1993 50.312 19.5433 50.68 19.9753 50.952C20.4233 51.208 20.9353 51.336 21.5113 51.336ZM24.2953 54V50.88L24.7993 48.048L24.2953 45.264V42.408H27.4153V54H24.2953ZM37.5887 54L33.1007 48.024L37.5647 42.408H41.1887L35.9567 48.744L36.0767 47.208L41.4287 54H37.5887ZM30.1967 54V36.648H33.3407V54H30.1967ZM46.1807 54.264C45.5247 54.264 44.8767 54.176 44.2367 54C43.6127 53.824 43.0367 53.584 42.5087 53.28C41.9807 52.96 41.5247 52.576 41.1407 52.128L43.0127 50.232C43.4127 50.68 43.8767 51.016 44.4047 51.24C44.9327 51.464 45.5167 51.576 46.1567 51.576C46.6687 51.576 47.0527 51.504 47.3087 51.36C47.5807 51.216 47.7167 51 47.7167 50.712C47.7167 50.392 47.5727 50.144 47.2847 49.968C47.0127 49.792 46.6527 49.648 46.2047 49.536C45.7567 49.408 45.2847 49.272 44.7887 49.128C44.3087 48.968 43.8447 48.768 43.3967 48.528C42.9487 48.272 42.5807 47.928 42.2927 47.496C42.0207 47.048 41.8847 46.472 41.8847 45.768C41.8847 45.032 42.0607 44.392 42.4127 43.848C42.7807 43.304 43.3007 42.88 43.9727 42.576C44.6447 42.272 45.4367 42.12 46.3487 42.12C47.3087 42.12 48.1727 42.288 48.9407 42.624C49.7247 42.96 50.3727 43.464 50.8847 44.136L48.9887 46.032C48.6367 45.6 48.2367 45.288 47.7887 45.096C47.3567 44.904 46.8847 44.808 46.3727 44.808C45.9087 44.808 45.5487 44.88 45.2927 45.024C45.0527 45.168 44.9327 45.368 44.9327 45.624C44.9327 45.912 45.0687 46.136 45.3407 46.296C45.6287 46.456 45.9967 46.6 46.4447 46.728C46.8927 46.84 47.3567 46.976 47.8367 47.136C48.3327 47.28 48.7967 47.488 49.2287 47.76C49.6767 48.032 50.0367 48.392 50.3087 48.84C50.5967 49.288 50.7407 49.864 50.7407 50.568C50.7407 51.704 50.3327 52.608 49.5167 53.28C48.7007 53.936 47.5887 54.264 46.1807 54.264ZM60.6608 54V47.352C60.6608 46.664 60.4448 46.104 60.0128 45.672C59.5808 45.24 59.0208 45.024 58.3328 45.024C57.8848 45.024 57.4848 45.12 57.1328 45.312C56.7808 45.504 56.5008 45.776 56.2928 46.128C56.1008 46.48 56.0048 46.888 56.0048 47.352L54.7808 46.728C54.7808 45.816 54.9728 45.024 55.3568 44.352C55.7408 43.664 56.2688 43.128 56.9408 42.744C57.6288 42.36 58.4128 42.168 59.2928 42.168C60.1728 42.168 60.9488 42.36 61.6208 42.744C62.3088 43.128 62.8448 43.656 63.2288 44.328C63.6128 45 63.8047 45.776 63.8047 46.656V54H60.6608ZM52.8608 54V36.648H56.0048V54H52.8608ZM71.1853 54.24C70.1293 54.24 69.1773 53.976 68.3293 53.448C67.4813 52.92 66.8173 52.2 66.3373 51.288C65.8573 50.376 65.6173 49.352 65.6173 48.216C65.6173 47.064 65.8573 46.032 66.3373 45.12C66.8173 44.208 67.4813 43.488 68.3293 42.96C69.1773 42.432 70.1293 42.168 71.1853 42.168C72.0173 42.168 72.7613 42.336 73.4173 42.672C74.0733 43.008 74.5933 43.48 74.9773 44.088C75.3773 44.68 75.5933 45.352 75.6253 46.104V50.28C75.5933 51.048 75.3773 51.728 74.9773 52.32C74.5933 52.912 74.0733 53.384 73.4173 53.736C72.7613 54.072 72.0173 54.24 71.1853 54.24ZM71.7613 51.336C72.6413 51.336 73.3533 51.048 73.8973 50.472C74.4413 49.88 74.7133 49.12 74.7133 48.192C74.7133 47.584 74.5853 47.048 74.3293 46.584C74.0893 46.104 73.7453 45.736 73.2973 45.48C72.8653 45.208 72.3533 45.072 71.7613 45.072C71.1853 45.072 70.6733 45.208 70.2253 45.48C69.7933 45.736 69.4493 46.104 69.1933 46.584C68.9533 47.048 68.8333 47.584 68.8333 48.192C68.8333 48.816 68.9533 49.368 69.1933 49.848C69.4493 50.312 69.7933 50.68 70.2253 50.952C70.6733 51.208 71.1853 51.336 71.7613 51.336ZM74.5453 54V50.88L75.0493 48.048L74.5453 45.264V42.408H77.6653V54H74.5453ZM87.8387 54L83.3507 48.024L87.8147 42.408H91.4387L86.2067 48.744L86.3267 47.208L91.6787 54H87.8387ZM80.4467 54V36.648H83.5907V54H80.4467Z" fill="black"/>
</svg>
