<svg width="60" height="53" viewBox="0 0 60 53" fill="none" xmlns="http://www.w3.org/2000/svg">
<path fill-rule="evenodd" clip-rule="evenodd" d="M26.254 18.1696V19.8664H27.948H29.6421V18.1696V16.4727H27.948H26.254V18.1696ZM30.3681 18.1696V19.8664H32.0621H33.7562V18.1696V16.4727H32.0621H30.3681V18.1696ZM26.254 22.3512V24.1086H27.948H29.6421V22.3512V20.5937H27.948H26.254V22.3512ZM30.4488 20.6745C30.4044 20.7189 30.3681 21.5097 30.3681 22.432V24.1086H32.0621H33.7562V22.3512V20.5937H32.1428C31.2554 20.5937 30.4931 20.63 30.4488 20.6745ZM23.064 26.4094C21.5455 26.686 19.3026 27.9425 18.5402 28.9439C18.143 29.4656 17.997 30.1313 18.3058 30.0126C19.2984 29.631 22.8713 29.6034 24.0179 29.9683C24.79 30.2142 26.1225 31.0176 26.42 31.4169C26.5828 31.6353 26.6798 32.0658 26.7579 32.9157C26.818 33.5716 26.9409 34.3907 27.031 34.7361C27.1896 35.3444 27.1856 35.3728 26.9037 35.6381C26.7436 35.7888 26.4567 36.2425 26.266 36.6463C25.8385 37.552 25.4052 38.0019 24.6205 38.355C24.2877 38.5048 23.9 38.7558 23.7589 38.913C23.435 39.2738 17.2998 48.2191 17.2998 48.3305C17.2998 48.3758 18.3064 49.4201 19.5368 50.6512C21.4772 52.5928 21.7959 52.8657 21.9404 52.7105C22.1147 52.5231 27.9857 42.7366 28.2885 42.1285C28.3943 41.9161 28.4559 41.4656 28.4455 40.9814C28.4224 39.9144 28.5592 39.5471 29.5504 38.017L30.3944 36.7141H30.9044C31.185 36.7141 31.8693 36.5777 32.4251 36.4111C32.981 36.2444 33.587 36.108 33.7718 36.108C34.5763 36.108 35.1221 36.6915 35.2456 37.6837C35.3003 38.1232 35.4031 38.306 35.7751 38.6246C36.5116 39.2555 37.3365 39.7529 37.9557 39.9396C38.4981 40.1031 38.5595 40.0973 39.0771 39.8317C39.5253 39.6018 39.7861 39.3097 40.5132 38.2233C41.6211 36.5679 41.9817 35.8227 41.9831 35.1851C41.9847 34.516 41.7273 34.2166 40.326 33.2582L39.1662 32.4648L38.5298 32.6502C37.2028 33.0367 36.6299 32.8081 35.7943 31.5593C35.2991 30.8191 35.1322 30.6871 32.9069 29.2748C30.4711 27.7289 29.2593 27.1658 27.2272 26.6353C26.1928 26.3653 23.9689 26.2445 23.064 26.4094Z" fill="black"/>
<path fill-rule="evenodd" clip-rule="evenodd" d="M28.9721 0.163468C28.3951 0.426243 0.400549 28.5631 0.177541 29.1045C-0.059503 29.6799 -0.0591395 30.4169 0.178389 30.991C0.30774 31.3038 2.64769 33.7304 7.83047 38.9261C11.9366 43.0425 15.3376 46.4106 15.3882 46.4106C15.4389 46.4106 15.4803 42.8926 15.4803 38.5928V30.775H13.2378C10.6543 30.775 10.3178 30.6944 9.9871 29.9964C9.6051 29.1901 9.77402 28.8995 11.9643 26.5934C12.4075 26.1267 16.4592 21.7774 20.9681 16.9282C25.4769 12.0789 29.2685 8.0564 29.3939 7.98925C29.772 7.78647 30.4287 7.84865 30.7727 8.11979C30.9491 8.25881 34.4006 11.9253 38.4424 16.2675C42.4844 20.6097 46.7093 25.1457 47.8312 26.3476C48.953 27.5493 49.9559 28.7081 50.0598 28.9224C50.3268 29.4729 50.1013 30.2111 49.5662 30.5379C49.2183 30.7504 48.9455 30.7741 46.8502 30.7745L44.5209 30.775V38.5928C44.5209 42.8926 44.5623 46.4106 44.613 46.4106C44.6636 46.4106 48.0881 43.0152 52.2228 38.8655C58.284 32.7824 59.7694 31.2298 59.8888 30.8523C60.1117 30.148 59.9898 29.1769 59.6097 28.6299C59.4335 28.3764 53.0397 21.9125 45.4013 14.2657C35.5897 4.44325 31.3811 0.30734 31.0632 0.175468C30.5119 -0.053369 29.4615 -0.0594292 28.9721 0.163468Z" fill="#FE8500"/>
</svg>
