<svg width="32" height="32" viewBox="0 0 32 32" fill="none" xmlns="http://www.w3.org/2000/svg">
<g id="vuesax/linear/receipt-2">
<g id="receipt-2">
<path id="Vector" d="M8.97366 26.2667C10.067 25.0934 11.7337 25.1867 12.6937 26.4667L14.0403 28.2667C15.1203 29.6934 16.867 29.6934 17.947 28.2667L19.2937 26.4667C20.2537 25.1867 21.9203 25.0934 23.0137 26.2667C25.387 28.8 27.3203 27.96 27.3203 24.4134V9.38669C27.3337 4.01335 26.0803 2.66669 21.0403 2.66669H10.9603C5.92033 2.66669 4.66699 4.01335 4.66699 9.38669V24.4C4.66699 27.96 6.61366 28.7867 8.97366 26.2667Z" stroke="white" stroke-width="2" stroke-linecap="round" stroke-linejoin="round"/>
<path id="Vector_2" d="M10.7951 14.6667H10.8071" stroke="white" stroke-width="2" stroke-linecap="round" stroke-linejoin="round"/>
<path id="Vector_3" d="M14.5312 14.6667H21.8646" stroke="white" stroke-width="2" stroke-linecap="round" stroke-linejoin="round"/>
<path id="Vector_4" d="M10.7951 9.33335H10.8071" stroke="white" stroke-width="2" stroke-linecap="round" stroke-linejoin="round"/>
<path id="Vector_5" d="M14.5312 9.33331H21.8646" stroke="white" stroke-width="2" stroke-linecap="round" stroke-linejoin="round"/>
</g>
</g>
</svg>
